<mxfile host="Electron" modified="2024-10-14T21:22:58.468Z" agent="Mozilla/5.0 (Macintosh; Intel Mac OS X 10_15_7) AppleWebKit/537.36 (KHTML, like Gecko) draw.io/22.1.11 Chrome/114.0.5735.289 Electron/25.9.8 Safari/537.36" etag="0H1GoSsz8WlHKRGN6ZyQ" version="22.1.11" type="device">
  <diagram name="Page-1" id="g1IuNa-zh0n9WrvBdllz">
    <mxGraphModel dx="2074" dy="1113" grid="1" gridSize="10" guides="1" tooltips="1" connect="1" arrows="1" fold="1" page="1" pageScale="1" pageWidth="827" pageHeight="583" math="0" shadow="0">
      <root>
        <mxCell id="0" />
        <mxCell id="1" parent="0" />
        <mxCell id="3j17eQw-aWzA2_EXpd66-1" value="Dune analytics" style="rounded=0;whiteSpace=wrap;html=1;fillColor=#ffe6cc;strokeColor=#d79b00;" parent="1" vertex="1">
          <mxGeometry x="29" y="317" width="100" height="60" as="geometry" />
        </mxCell>
        <mxCell id="HFzDAcVt_3OvK5zARZYi-20" style="edgeStyle=orthogonalEdgeStyle;rounded=0;orthogonalLoop=1;jettySize=auto;html=1;exitX=1;exitY=0.75;exitDx=0;exitDy=0;entryX=0;entryY=0.75;entryDx=0;entryDy=0;dashed=1;strokeColor=#00CC00;" parent="1" source="3j17eQw-aWzA2_EXpd66-2" target="HFzDAcVt_3OvK5zARZYi-2" edge="1">
          <mxGeometry relative="1" as="geometry">
            <Array as="points">
              <mxPoint x="169" y="452" />
              <mxPoint x="169" y="412" />
            </Array>
          </mxGeometry>
        </mxCell>
        <mxCell id="3j17eQw-aWzA2_EXpd66-2" value="Binance" style="rounded=0;whiteSpace=wrap;html=1;fillColor=#ffe6cc;strokeColor=#d79b00;" parent="1" vertex="1">
          <mxGeometry x="29" y="407" width="100" height="60" as="geometry" />
        </mxCell>
        <mxCell id="3j17eQw-aWzA2_EXpd66-4" value="Airflow" style="rounded=0;whiteSpace=wrap;html=1;fontStyle=1;verticalAlign=top;align=left;fillColor=#d5e8d4;strokeColor=#82b366;" parent="1" vertex="1">
          <mxGeometry x="219" y="97" width="210" height="370" as="geometry" />
        </mxCell>
        <mxCell id="HFzDAcVt_3OvK5zARZYi-1" value="" style="shape=image;verticalLabelPosition=bottom;labelBackgroundColor=default;verticalAlign=top;aspect=fixed;imageAspect=0;image=https://www.element61.be/sites/default/files/img_knowledge_base/airflow.png;" parent="1" vertex="1">
          <mxGeometry x="289" y="107" width="90" height="90" as="geometry" />
        </mxCell>
        <mxCell id="HFzDAcVt_3OvK5zARZYi-18" style="edgeStyle=orthogonalEdgeStyle;rounded=0;orthogonalLoop=1;jettySize=auto;html=1;exitX=0;exitY=0.25;exitDx=0;exitDy=0;entryX=1;entryY=0.25;entryDx=0;entryDy=0;strokeColor=#CC0000;dashed=1;dashPattern=1 1;" parent="1" source="HFzDAcVt_3OvK5zARZYi-2" target="3j17eQw-aWzA2_EXpd66-1" edge="1">
          <mxGeometry relative="1" as="geometry">
            <Array as="points">
              <mxPoint x="199" y="382" />
              <mxPoint x="199" y="332" />
            </Array>
          </mxGeometry>
        </mxCell>
        <mxCell id="HFzDAcVt_3OvK5zARZYi-19" style="edgeStyle=orthogonalEdgeStyle;rounded=0;orthogonalLoop=1;jettySize=auto;html=1;exitX=0;exitY=0.25;exitDx=0;exitDy=0;entryX=1;entryY=0.25;entryDx=0;entryDy=0;strokeColor=#CC0000;dashed=1;dashPattern=1 1;" parent="1" source="HFzDAcVt_3OvK5zARZYi-2" target="3j17eQw-aWzA2_EXpd66-2" edge="1">
          <mxGeometry relative="1" as="geometry">
            <Array as="points">
              <mxPoint x="199" y="382" />
              <mxPoint x="199" y="422" />
            </Array>
          </mxGeometry>
        </mxCell>
        <mxCell id="HFzDAcVt_3OvK5zARZYi-2" value="trade_execution_quality_dag" style="rounded=0;whiteSpace=wrap;html=1;fontStyle=1;fillColor=#60a917;fontColor=#ffffff;strokeColor=#2D7600;" parent="1" vertex="1">
          <mxGeometry x="229" y="367" width="190" height="60" as="geometry" />
        </mxCell>
        <mxCell id="HFzDAcVt_3OvK5zARZYi-21" style="edgeStyle=orthogonalEdgeStyle;rounded=0;orthogonalLoop=1;jettySize=auto;html=1;exitX=1;exitY=0.5;exitDx=0;exitDy=0;entryX=0.5;entryY=0;entryDx=0;entryDy=0;strokeColor=#007FFF;strokeWidth=2;" parent="1" source="HFzDAcVt_3OvK5zARZYi-3" target="HFzDAcVt_3OvK5zARZYi-12" edge="1">
          <mxGeometry relative="1" as="geometry">
            <Array as="points">
              <mxPoint x="509" y="267" />
              <mxPoint x="509" y="137" />
              <mxPoint x="587" y="137" />
            </Array>
          </mxGeometry>
        </mxCell>
        <mxCell id="HFzDAcVt_3OvK5zARZYi-22" style="edgeStyle=orthogonalEdgeStyle;rounded=0;orthogonalLoop=1;jettySize=auto;html=1;exitX=1;exitY=0.5;exitDx=0;exitDy=0;entryX=0.5;entryY=0;entryDx=0;entryDy=0;strokeColor=#007FFF;strokeWidth=2;" parent="1" source="HFzDAcVt_3OvK5zARZYi-3" target="HFzDAcVt_3OvK5zARZYi-8" edge="1">
          <mxGeometry relative="1" as="geometry">
            <Array as="points">
              <mxPoint x="509" y="267" />
              <mxPoint x="509" y="137" />
              <mxPoint x="739" y="137" />
            </Array>
          </mxGeometry>
        </mxCell>
        <mxCell id="HFzDAcVt_3OvK5zARZYi-3" value="db_migrations_dag" style="rounded=0;whiteSpace=wrap;html=1;fontStyle=1;fillColor=#60a917;fontColor=#ffffff;strokeColor=#2D7600;" parent="1" vertex="1">
          <mxGeometry x="229" y="237" width="190" height="60" as="geometry" />
        </mxCell>
        <mxCell id="HFzDAcVt_3OvK5zARZYi-9" value="" style="group;" parent="1" vertex="1" connectable="0">
          <mxGeometry x="679" y="212" width="120" height="140" as="geometry" />
        </mxCell>
        <mxCell id="HFzDAcVt_3OvK5zARZYi-5" value="raw schema" style="shape=cylinder3;whiteSpace=wrap;html=1;boundedLbl=1;backgroundOutline=1;size=15;fontStyle=1;verticalAlign=bottom;fillColor=#dae8fc;strokeColor=#6c8ebf;" parent="HFzDAcVt_3OvK5zARZYi-9" vertex="1">
          <mxGeometry y="4.188462442375326e-14" width="120" height="139.99999999999997" as="geometry" />
        </mxCell>
        <mxCell id="HFzDAcVt_3OvK5zARZYi-8" value="" style="shape=image;verticalLabelPosition=bottom;labelBackgroundColor=default;verticalAlign=top;aspect=fixed;imageAspect=0;image=https://raw.githubusercontent.com/docker-library/docs/01c12653951b2fe592c1f93a13b4e289ada0e3a1/postgres/logo.png;" parent="HFzDAcVt_3OvK5zARZYi-9" vertex="1">
          <mxGeometry x="23.333333333333332" width="72.3931623931624" height="66.6017094017094" as="geometry" />
        </mxCell>
        <mxCell id="HFzDAcVt_3OvK5zARZYi-10" value="" style="group;" parent="1" vertex="1" connectable="0">
          <mxGeometry x="529" y="212" width="115" height="140" as="geometry" />
        </mxCell>
        <mxCell id="HFzDAcVt_3OvK5zARZYi-11" value="staging schema" style="shape=cylinder3;whiteSpace=wrap;html=1;boundedLbl=1;backgroundOutline=1;size=15;fontStyle=1;verticalAlign=bottom;fillColor=#dae8fc;strokeColor=#6c8ebf;" parent="HFzDAcVt_3OvK5zARZYi-10" vertex="1">
          <mxGeometry y="4.1884624423753265e-14" width="115" height="139.99999999999994" as="geometry" />
        </mxCell>
        <mxCell id="HFzDAcVt_3OvK5zARZYi-12" value="" style="shape=image;verticalLabelPosition=bottom;labelBackgroundColor=default;verticalAlign=top;aspect=fixed;imageAspect=0;image=https://raw.githubusercontent.com/docker-library/docs/01c12653951b2fe592c1f93a13b4e289ada0e3a1/postgres/logo.png;" parent="HFzDAcVt_3OvK5zARZYi-10" vertex="1">
          <mxGeometry x="22.36111111111111" width="70.27777777777779" height="64.65555555555557" as="geometry" />
        </mxCell>
        <mxCell id="HFzDAcVt_3OvK5zARZYi-15" style="edgeStyle=orthogonalEdgeStyle;rounded=0;orthogonalLoop=1;jettySize=auto;html=1;exitX=1;exitY=0.75;exitDx=0;exitDy=0;entryX=0;entryY=0.75;entryDx=0;entryDy=0;dashed=1;strokeColor=#00CC00;" parent="1" source="3j17eQw-aWzA2_EXpd66-1" target="HFzDAcVt_3OvK5zARZYi-2" edge="1">
          <mxGeometry relative="1" as="geometry">
            <Array as="points">
              <mxPoint x="169" y="362" />
              <mxPoint x="169" y="412" />
            </Array>
          </mxGeometry>
        </mxCell>
        <mxCell id="HFzDAcVt_3OvK5zARZYi-23" value="Create schemas, tables, indexes" style="text;html=1;strokeColor=none;fillColor=none;align=center;verticalAlign=middle;whiteSpace=wrap;rounded=0;fontStyle=1" parent="1" vertex="1">
          <mxGeometry x="600" y="90" width="60" height="30" as="geometry" />
        </mxCell>
        <mxCell id="HFzDAcVt_3OvK5zARZYi-24" style="edgeStyle=orthogonalEdgeStyle;rounded=0;orthogonalLoop=1;jettySize=auto;html=1;exitX=1;exitY=0.5;exitDx=0;exitDy=0;entryX=0.5;entryY=1;entryDx=0;entryDy=0;entryPerimeter=0;strokeColor=#00CC00;strokeWidth=2;" parent="1" source="HFzDAcVt_3OvK5zARZYi-2" target="HFzDAcVt_3OvK5zARZYi-11" edge="1">
          <mxGeometry relative="1" as="geometry" />
        </mxCell>
        <mxCell id="HFzDAcVt_3OvK5zARZYi-25" style="edgeStyle=orthogonalEdgeStyle;rounded=0;orthogonalLoop=1;jettySize=auto;html=1;exitX=1;exitY=0.5;exitDx=0;exitDy=0;entryX=0.5;entryY=1;entryDx=0;entryDy=0;entryPerimeter=0;strokeColor=#00CC00;strokeWidth=2;" parent="1" source="HFzDAcVt_3OvK5zARZYi-2" target="HFzDAcVt_3OvK5zARZYi-5" edge="1">
          <mxGeometry relative="1" as="geometry" />
        </mxCell>
        <mxCell id="HFzDAcVt_3OvK5zARZYi-26" value="Save raw data into raw schema" style="text;html=1;strokeColor=none;fillColor=none;align=center;verticalAlign=middle;whiteSpace=wrap;rounded=0;fontStyle=1" parent="1" vertex="1">
          <mxGeometry x="689" y="407" width="100" height="30" as="geometry" />
        </mxCell>
        <mxCell id="HFzDAcVt_3OvK5zARZYi-30" value="Join data from raw schema into staging dataset" style="text;html=1;strokeColor=none;fillColor=none;align=center;verticalAlign=middle;whiteSpace=wrap;rounded=0;fontStyle=1" parent="1" vertex="1">
          <mxGeometry x="536.5" y="407" width="100" height="30" as="geometry" />
        </mxCell>
        <mxCell id="HFzDAcVt_3OvK5zARZYi-31" value="+We have querable data here" style="text;html=1;strokeColor=none;fillColor=none;align=center;verticalAlign=middle;whiteSpace=wrap;rounded=0;fontStyle=1" parent="1" vertex="1">
          <mxGeometry x="536.5" y="467" width="100" height="30" as="geometry" />
        </mxCell>
      </root>
    </mxGraphModel>
  </diagram>
</mxfile>
